<?xml version="1.0" standalone="no"?>
<!DOCTYPE svg PUBLIC "-//W3C//DTD SVG 20010904//EN"
 "http://www.w3.org/TR/2001/REC-SVG-20010904/DTD/svg10.dtd">
<svg version="1.0" xmlns="http://www.w3.org/2000/svg"
 width="80.000000pt" height="80.000000pt" viewBox="0 0 80.000000 80.000000"
 preserveAspectRatio="xMidYMid meet">
<metadata>
Created by potrace 1.11, written by Peter Selinger 2001-2013
</metadata>
<g transform="translate(0.000000,80.000000) scale(0.100000,-0.100000)"
fill="#000000" stroke="none">
<path d="M0 400 l0 -400 400 0 400 0 0 400 0 400 -400 0 -400 0 0 -400z m365
208 c3 -7 18 -97 33 -200 l28 -188 -52 0 c-52 0 -53 0 -56 32 -4 48 -34 50
-42 4 -7 -35 -8 -36 -56 -36 -60 0 -58 -15 -30 200 30 223 18 200 101 200 46
0 71 -4 74 -12z m215 -172 c0 -216 0 -216 -86 -216 -53 0 -54 0 -54 29 0 21 6
32 20 36 19 6 20 15 20 171 l0 164 50 0 50 0 0 -184z"/>
<path d="M287 456 c-11 -74 -9 -96 8 -96 17 0 18 26 6 100 l-7 45 -7 -49z"/>
</g>
</svg>
